<?xml version="1.0" encoding="UTF-8"?>
<!-- Generated by Pixelmator Pro 3.5.7 -->
<svg width="224" height="82" viewBox="0 0 224 82" xmlns="http://www.w3.org/2000/svg">
    <path id="Path" fill="#ffffff" stroke="none" visibility="hidden" d="M 112.709999 53.734901 C 110.963997 53.734901 109.391998 53.4356 107.996002 52.836899 C 106.598999 52.213299 105.500999 51.340302 104.703003 50.2178 C 103.904999 49.095299 103.505997 47.785801 103.505997 46.289101 L 108.07 46.289101 C 108.169998 47.411598 108.607002 48.334499 109.379997 49.057899 C 110.178001 49.7813 111.288002 50.143002 112.709999 50.143002 C 114.181999 50.143002 115.329002 49.7938 116.152 49.095299 C 116.974998 48.372002 117.387001 47.449001 117.387001 46.3265 C 117.387001 45.453499 117.125 44.742599 116.600998 44.193802 C 116.101997 43.645 115.466003 43.221001 114.693001 42.9217 C 113.945 42.622299 112.897003 42.2981 111.550003 41.948799 C 109.853996 41.499901 108.469002 41.0509 107.397003 40.601898 C 106.348999 40.127899 105.450996 39.404598 104.703003 38.431702 C 103.955002 37.4589 103.580002 36.1618 103.580002 34.540401 C 103.580002 33.0438 103.955002 31.7342 104.703003 30.611801 C 105.450996 29.4893 106.499001 28.6287 107.846001 28.029999 C 109.193001 27.4314 110.751999 27.132099 112.523003 27.132099 C 115.042 27.132099 117.099998 27.768101 118.696999 29.040298 C 120.318001 30.287498 121.216003 32.008598 121.390999 34.203701 L 116.676003 34.203701 C 116.600998 33.255798 116.152 32.445099 115.329002 31.771698 C 114.505997 31.098198 113.420998 30.761398 112.073997 30.761398 C 110.851997 30.761398 109.853996 31.0732 109.081001 31.6968 C 108.306999 32.3204 107.920998 33.218399 107.920998 34.3908 C 107.920998 35.188999 108.157997 35.849998 108.632004 36.373798 C 109.129997 36.8727 109.753998 37.271801 110.501999 37.571201 C 111.250999 37.870499 112.273003 38.194801 113.570999 38.543999 C 115.292 39.017899 116.689003 39.491901 117.761002 39.965801 C 118.859001 40.439701 119.781998 41.175598 120.529999 42.173302 C 121.303001 43.146198 121.690002 44.4557 121.690002 46.102001 C 121.690002 47.424099 121.328003 48.671299 120.605003 49.8437 C 119.905998 51.015999 118.871002 51.963902 117.499001 52.687302 C 116.152 53.3857 114.556 53.734901 112.709999 53.734901 Z M 131.699005 36.336399 L 131.699005 47.748402 C 131.699005 48.521599 131.873993 49.082901 132.223007 49.432098 C 132.597 49.756401 133.220993 49.918499 134.093994 49.918499 L 136.712997 49.918499 L 136.712997 53.473 L 133.345993 53.473 C 131.425003 53.473 129.953003 53.023998 128.929993 52.125999 C 127.907997 51.2281 127.396004 49.768799 127.396004 47.748402 L 127.396004 36.336399 L 124.963997 36.336399 L 124.963997 32.856701 L 127.396004 32.856701 L 127.396004 27.730698 L 131.699005 27.730698 L 131.699005 32.856701 L 136.712997 32.856701 L 136.712997 36.336399 L 131.699005 36.336399 Z M 149.587006 53.809799 C 147.641006 53.809799 145.882996 53.373199 144.311005 52.500198 C 142.740005 51.6022 141.505005 50.355 140.606995 48.758598 C 139.709 47.137199 139.259995 45.266399 139.259995 43.146198 C 139.259995 41.0509 139.720993 39.192501 140.643997 37.571201 C 141.567001 35.949799 142.826996 34.702599 144.423004 33.829498 C 146.020004 32.956501 147.802994 32.52 149.774002 32.52 C 151.744003 32.52 153.528 32.956501 155.123993 33.829498 C 156.720993 34.702599 157.979996 35.949799 158.903 37.571201 C 159.826004 39.192501 160.287994 41.0509 160.287994 43.146198 C 160.287994 45.241501 159.813995 47.0998 158.865997 48.721199 C 157.917999 50.342499 156.621002 51.6022 154.975006 52.500198 C 153.352997 53.373199 151.557007 53.809799 149.587006 53.809799 Z M 149.587006 50.105598 C 150.684006 50.105598 151.707001 49.8437 152.654999 49.319801 C 153.628006 48.796001 154.412994 48.0103 155.011993 46.962601 C 155.610992 45.915001 155.910004 44.642799 155.910004 43.146198 C 155.910004 41.649502 155.623001 40.389801 155.050003 39.3671 C 154.475998 38.3195 153.714996 37.533699 152.766998 37.009899 C 151.819 36.486099 150.796997 36.224201 149.699005 36.224201 C 148.600998 36.224201 147.578995 36.486099 146.630997 37.009899 C 145.707993 37.533699 144.972 38.3195 144.423004 39.3671 C 143.875 40.389801 143.600006 41.649502 143.600006 43.146198 C 143.600006 45.366199 144.160995 47.087299 145.283997 48.309601 C 146.431 49.506901 147.865997 50.105598 149.587006 50.105598 Z M 168.770004 35.849998 C 169.393005 34.802399 170.216995 33.991699 171.238998 33.417999 C 172.287003 32.819302 173.522003 32.52 174.944 32.52 L 174.944 36.935101 L 173.858002 36.935101 C 172.186996 36.935101 170.914993 37.3591 170.042007 38.207199 C 169.194 39.055302 168.770004 40.527 168.770004 42.622299 L 168.770004 53.473 L 164.503998 53.473 L 164.503998 32.856701 L 168.770004 32.856701 L 168.770004 35.849998 Z M 197.759003 42.659801 C 197.759003 43.432999 197.710007 44.1315 197.610001 44.7551 L 181.858002 44.7551 C 181.981995 46.401402 182.593002 47.7234 183.690994 48.721199 C 184.789001 49.718899 186.136002 50.2178 187.731995 50.2178 C 190.026993 50.2178 191.647995 49.2575 192.595993 47.3368 L 197.197998 47.3368 C 196.574997 49.232498 195.440002 50.7915 193.792999 52.013802 C 192.171997 53.211102 190.151993 53.809799 187.731995 53.809799 C 185.761002 53.809799 183.990005 53.373199 182.419006 52.500198 C 180.871994 51.6022 179.649994 50.355 178.751999 48.758598 C 177.878998 47.137199 177.442993 45.266399 177.442993 43.146198 C 177.442993 41.025902 177.867004 39.167599 178.714996 37.571201 C 179.587997 35.949799 180.798004 34.702599 182.343994 33.829498 C 183.916 32.956501 185.710999 32.52 187.731995 32.52 C 189.677994 32.52 191.410995 32.944 192.932999 33.792099 C 194.453995 34.640202 195.639008 35.837502 196.487 37.384102 C 197.335007 38.905701 197.759003 40.6642 197.759003 42.659801 Z M 193.307007 41.312801 C 193.281998 39.741299 192.720993 38.481602 191.623001 37.533699 C 190.526001 36.585899 189.166 36.1119 187.544998 36.1119 C 186.072998 36.1119 184.813995 36.585899 183.766006 37.533699 C 182.718002 38.456699 182.095001 39.7164 181.895004 41.312801 L 193.307007 41.312801 Z M 206.223007 27.4688 L 206.223007 53.473 L 201.957001 53.473 L 201.957001 27.4688 L 206.223007 27.4688 Z M 216.798996 36.336399 L 216.798996 47.748402 C 216.798996 48.521599 216.973999 49.082901 217.322998 49.432098 C 217.697006 49.756401 218.320999 49.918499 219.194 49.918499 L 221.813004 49.918499 L 221.813004 53.473 L 218.445007 53.473 C 216.524994 53.473 215.052994 53.023998 214.029999 52.125999 C 213.007996 51.2281 212.496002 49.768799 212.496002 47.748402 L 212.496002 36.336399 L 210.063995 36.336399 L 210.063995 32.856701 L 212.496002 32.856701 L 212.496002 27.730698 L 216.798996 27.730698 L 216.798996 32.856701 L 221.813004 32.856701 L 221.813004 36.336399 L 216.798996 36.336399 Z"/>
    <text id="NStore" xml:space="preserve" x="100" y="54" font-family="Outfit" font-size="39" fill="#ffffff">NStore</text>
    <path id="path1" fill="#ffffff" stroke="none" opacity="0.2" d="M 37.4161 0 L 37.416199 0 C 58.08054 0 74.832298 16.751755 74.832298 37.4161 L 74.832298 37.416199 C 74.832298 58.08054 58.08054 74.832298 37.416199 74.832298 L 37.4161 74.832298 C 16.751759 74.832298 -0 58.08054 -0 37.416199 L -0 37.4161 C -0 16.751755 16.751759 0 37.4161 0 Z"/>
    <path id="path2" fill="#ffffff" stroke="none" d="M 57.683399 31.180099 L 57.683399 31.180099 C 71.459648 31.180099 82.627502 42.347954 82.627502 56.124199 L 82.627502 56.124199 C 82.627502 69.900444 71.459648 81.068298 57.683399 81.068298 L 57.683399 81.068298 C 43.907154 81.068298 32.7393 69.900444 32.7393 56.124199 L 32.7393 56.124199 C 32.7393 42.347954 43.907154 31.180099 57.683399 31.180099 Z"/>
</svg>
