<?xml version="1.0" encoding="UTF-8"?>
<!-- Generated by Pixelmator Pro 3.5.7 -->
<svg width="224" height="82" viewBox="0 0 224 82" xmlns="http://www.w3.org/2000/svg">
    <path id="Path" fill="#fa7275" stroke="none" opacity="0.2" d="M 37.4161 0 L 37.416199 0 C 58.08054 0 74.832298 16.751755 74.832298 37.4161 L 74.832298 37.416199 C 74.832298 58.08054 58.08054 74.832298 37.416199 74.832298 L 37.4161 74.832298 C 16.751759 74.832298 -0 58.08054 -0 37.416199 L -0 37.4161 C -0 16.751755 16.751759 0 37.4161 0 Z"/>
    <path id="path1" fill="#fa7275" stroke="none" d="M 57.6824 31.179703 L 57.6824 31.179703 C 71.458649 31.179703 82.626503 42.347553 82.626503 56.123798 L 82.626503 56.123798 C 82.626503 69.900047 71.458649 81.067902 57.6824 81.067902 L 57.6824 81.067902 C 43.906155 81.067902 32.7383 69.900047 32.7383 56.123798 L 32.7383 56.123798 C 32.7383 42.347553 43.906155 31.179703 57.6824 31.179703 Z"/>
    <text id="NStore" xml:space="preserve" x="99" y="49" font-family="Outfit" font-size="39" fill="#fa7275">NStore</text>
</svg>
